<svg xmlns="http://www.w3.org/2000/svg" width="31" height="52" viewBox="0 0 31 52"><g fill="none" fill-rule="evenodd" transform="translate(-16.4 -5)"><rect width="64" height="64"/><path fill="#000" fill-rule="nonzero" d="M32.0213948,16.0328671 C32.2330992,15.9890443 32.4515357,15.9890443 32.6632401,16.0328671 C32.8648384,16.1361357 33.0518841,16.2656288 33.2195061,16.4179743 L57.1817304,40.4229883 C57.3476823,40.5793574 57.4788912,40.7688814 57.5668376,40.9792542 C57.6110541,41.1764917 57.6110541,41.3810724 57.5668376,41.5783098 C57.6073118,41.790344 57.6073118,42.0081209 57.5668376,42.2201551 C57.4788912,42.430528 57.3476823,42.620052 57.1817304,42.776421 L54.6571389,45.3438022 L54.100873,45.7289094 C53.8748758,45.7738706 53.6422351,45.7738706 53.416238,45.7289094 C53.2190005,45.773126 53.0144199,45.773126 52.8171824,45.7289094 C52.6155841,45.6256408 52.4285384,45.4961477 52.2609165,45.3438022 L32.0213948,25.2326497 L11.8246629,45.4721713 C11.6570409,45.6245167 11.4699953,45.7540099 11.268397,45.8572785 L10.6265517,45.9856475 C10.4154398,46.0349168 10.1958183,46.0349168 9.9847064,45.9856475 C9.7831081,45.882379 9.59606244,45.7528858 9.42844048,45.6005403 L6.8610593,43.0331592 C6.67107337,42.8895154 6.52326778,42.6973682 6.43316244,42.4768932 C6.39268819,42.264859 6.39268819,42.0470822 6.43316244,41.8350479 C6.38894585,41.6378105 6.38894585,41.4332298 6.43316244,41.2359923 C6.52326778,41.0155174 6.67107337,40.8233701 6.8610593,40.6797264 L30.8232836,16.6747124 C30.9909056,16.5223669 31.1779513,16.3928738 31.3795495,16.2896052 C31.5705491,16.1551434 31.7903526,16.0672221 32.0213948,16.0328671 Z" transform="rotate(90 32 31.011)"/></g></svg>