<svg xmlns="http://www.w3.org/2000/svg" width="52" height="44" viewBox="0 0 52 44"><g fill="none" fill-rule="evenodd" transform="translate(-6 -9)"><rect width="64" height="64"/><path fill="#000" fill-rule="nonzero" d="M56.2346171,20.2171705 C57.1924216,21.1349552 57.6886473,22.4335884 57.5869396,23.7562273 L57.5869396,47.2348482 C57.5260422,49.9742246 55.3198454,52.1804214 52.580469,52.2413892 L11.4065639,52.2413892 C10.0801108,52.2484888 8.80969969,51.7070021 7.89627993,50.7451322 C6.9372737,49.8297262 6.39633935,48.560611 6.4,47.2348482 L6.4,23.7562273 C6.39182932,22.4211668 6.93285401,21.1414353 7.89627993,20.2171705 C8.82040113,19.2743621 10.0863873,18.7451384 11.4065639,18.7497567 L21.6496878,18.7497567 L21.6496878,14.3187424 C22.3977811,11.1825051 23.9515133,9.6 26.2533389,9.6 L37.9638766,9.6 C40.2369293,9.6 41.7906616,11.1825051 42.5675277,14.3187424 L42.5675277,18.7497567 L52.7818787,18.7497567 C54.0847613,18.7474993 55.3320183,19.2775836 56.2346171,20.2171705 Z M37.9351037,18.7497567 L37.9351037,16.2752942 C37.5610571,14.865426 36.7841909,14.1461055 35.6332782,14.1461055 L28.5263917,14.1461055 C27.3754789,14.1461055 26.5986128,14.865426 26.2245661,16.2752942 L26.2245661,18.7497567 L37.9351037,18.7497567 Z"/></g></svg>