<svg xmlns="http://www.w3.org/2000/svg" width="45" height="41" viewBox="0 0 45 41"><g fill="none" fill-rule="evenodd" transform="translate(-9.4 -12)"><rect width="64" height="64"/><path fill="#000" fill-rule="nonzero" d="M52.974659,14.5071209 C53.9182857,15.6296302 54.4236248,17.0558094 54.3972598,18.5220165 L54.3972598,46.7527388 C54.4420932,48.2410171 53.9354538,49.6933833 52.974659,50.830861 C52.1853076,51.8917147 50.9458637,52.5231295 49.6236438,52.537982 L14.406371,52.537982 C13.0630491,52.537982 11.7981223,51.9055186 10.9921291,50.830861 C10.0652829,49.6762798 9.57301721,48.2330464 9.60114169,46.7527388 L9.60114169,36.85776 C9.65041095,35.0576024 9.98108246,33.276243 10.5811556,31.5783304 C11.1215549,29.9176522 11.9334246,28.3580078 12.9837702,26.9627812 L21.0135613,16.9097356 C22.0322935,15.7032695 23.2922145,14.723331 24.7123234,14.0329207 C26.0454838,13.2753101 27.5424644,12.8522503 29.0749658,12.8 L49.6236438,12.8 C50.9458637,12.8148525 52.1853076,13.4462673 52.974659,14.5071209 Z M15.5444516,28.9544223 L15.2283181,29.5234626 L14.8489579,30.0608895 L51.3307648,30.0608895 L51.3307648,20.5768843 C51.349276,19.8358747 51.2963425,19.0948054 51.172698,18.3639497 C51.0814897,17.7513895 50.7929034,17.1853164 50.3507509,16.7516689 C49.9049027,16.3264285 49.3445107,16.0407384 48.73847,15.9297217 C48.1170495,15.7819383 47.4804199,15.7076649 46.8416689,15.7084224 L30.62402,15.7084224 C29.237779,15.7416602 27.8723913,16.0534417 26.6091244,16.6252154 C25.254506,17.2651335 24.0890177,18.2454508 23.2264959,19.470417 L15.5444516,28.9544223 Z M51.2991514,36.0041995 C51.6163994,35.7100466 51.7992136,35.2987147 51.804965,34.8661189 C51.7877447,33.9880506 51.0709212,33.2852825 50.1926841,33.2854513 L43.332587,33.2854513 C42.9104721,33.2813847 42.5029697,33.4398579 42.1945064,33.7280382 C41.8825026,34.0231954 41.7101902,34.4367451 41.7203061,34.8661189 C41.7203061,35.756557 42.4421489,36.4783998 43.332587,36.4783998 L50.1926841,36.4783998 C50.5941591,36.5249207 50.9964714,36.3984797 51.2991514,36.1306529 L51.2991514,36.0041995 Z"/></g></svg>