<svg xmlns="http://www.w3.org/2000/svg" width="36" height="48" viewBox="0 0 36 48"><g fill="none" fill-rule="evenodd" transform="translate(-15.6 -8)"><rect width="64" height="64"/><path fill="#000" fill-rule="nonzero" d="M43.307848,18.2727273 L43.307848,56 L16.0351207,56 L16.0351207,11.3030303 C15.9882931,10.869949 15.9882931,10.4330813 16.0351207,10 C16.1397822,9.5902226 16.34855,9.21444063 16.6411813,8.90909091 C16.9735553,8.62370417 17.3529166,8.39813797 17.7623934,8.24242424 C18.1898144,8.08636785 18.6407289,8.0043834 19.0957268,8 L39.7320904,8 C40.1870883,8.0043834 40.6380028,8.08636785 41.0654237,8.24242424 C41.4749006,8.39813797 41.8542619,8.62370417 42.1866359,8.90909091 C42.4925724,9.23939614 42.7571461,9.60572898 42.9745146,10 C43.1818309,10.4038902 43.2957476,10.8492011 43.307848,11.3030303 L43.307848,18.2727273 Z M37.4593631,13.3939394 C37.3992597,13.2691529 37.3171364,13.1562333 37.2169389,13.0606061 C37.1315297,12.9493451 37.0157691,12.8651556 36.8836055,12.8181818 C36.7133159,12.7868684 36.5387437,12.7868684 36.368454,12.8181818 L22.4290601,12.8181818 C22.2690122,12.786341 22.1042595,12.786341 21.9442116,12.8181818 C21.8078881,12.8736343 21.6841942,12.9560969 21.5805752,13.0606061 C21.438049,13.1350942 21.3217301,13.2514131 21.2472419,13.3939394 C21.1987163,13.5311907 21.1987163,13.6809305 21.2472419,13.8181818 L21.2472419,23.8787879 C21.2234686,23.9886274 21.2234686,24.1022817 21.2472419,24.2121212 C21.2949113,24.3524222 21.3784919,24.4777932 21.4896662,24.5757576 C21.5932851,24.6802668 21.716979,24.7627294 21.8533025,24.8181818 L22.338151,24.8181818 L36.3987571,24.8181818 L36.9139086,24.8181818 C37.0592391,24.7627457 37.1928676,24.6805127 37.307848,24.5757576 C37.380468,24.4609341 37.4413794,24.3391113 37.4896662,24.2121212 C37.5134394,24.1022817 37.5134394,23.9886274 37.4896662,23.8787879 L37.4896662,13.8181818 C37.5285209,13.6774776 37.517822,13.5276927 37.4593631,13.3939394 Z M45.9745146,46.7272727 C45.2317065,47.7488212 44.3552012,48.6660942 43.368454,49.4545455 L43.368454,43.9090909 L45.2169389,40.3939394 C45.9711212,38.952739 46.5509628,37.42684 46.9442116,35.8484848 C47.3020025,34.4824525 47.4952917,33.0785625 47.5199692,31.6666667 L47.5199692,30.5454545 C47.4121082,29.272491 47.1370141,28.0192846 46.7017874,26.8181818 C46.2621027,25.614644 45.6160783,24.4969193 44.7926965,23.5151515 C44.4719445,23.7015242 44.1376749,23.8635943 43.7926965,24 C43.4896662,24 43.368454,24.2727273 43.368454,24.4242424 L43.368454,19.3636364 L44.7926965,17.9090909 L45.7623934,18.8181818 L45.7623934,18.8181818 C47.2288944,20.2553358 48.4021542,21.9637666 49.2169389,23.8484848 C50.0848776,25.7602499 50.5982645,27.8137977 50.7320904,29.9090909 C50.7478379,30.1714811 50.7478379,30.4345795 50.7320904,30.6969697 L50.7320904,31.6969697 C50.7221666,33.7365848 50.4884444,35.7689516 50.0351207,37.7575758 C49.6016784,39.6943978 48.8762131,41.5540412 47.8836055,43.2727273 C47.1866359,44.6666667 46.6108783,45.8181818 45.9745146,46.7575758 L45.9745146,46.7272727 Z"/></g></svg>