<svg xmlns="http://www.w3.org/2000/svg" width="49" height="52" viewBox="0 0 49 52"><polygon points="34.281 6.4 34.281 13.374 39.273 8.909 41.719 11.582 34.281 18.296 34.281 25.042 35.702 25.857 37.157 26.704 43.041 23.445 45.124 13.668 48.727 14.482 47.339 21.001 53.488 17.318 55.769 21.164 49.62 24.651 56 26.737 54.909 30.159 45.223 27.128 39.339 30.387 39.339 33.646 45.223 36.905 54.81 33.874 55.901 37.361 49.521 39.349 55.669 42.869 53.388 46.747 47.24 43.26 48.628 49.778 45.223 50.658 43.14 40.881 37.256 37.622 34.38 39.284 34.38 45.802 41.818 52.32 39.372 55.025 34.38 50.56 34.38 57.6 29.719 57.6 29.719 50.854 24.727 55.319 22.281 52.614 29.719 46.095 29.719 39.577 28.298 38.73 26.843 37.915 21.025 41.174 18.876 50.951 15.273 50.202 16.661 43.684 10.512 46.943 8.231 43.065 14.38 39.545 8 37.557 9.091 34.07 18.777 37.1 24.661 33.841 24.661 30.582 18.777 27.128 9.19 30.159 8 26.737 14.38 24.651 8.231 21.164 10.512 17.318 16.661 20.805 15.273 14.287 18.777 13.537 20.86 23.315 26.744 26.574 28.198 25.726 29.719 25.042 29.719 18.524 22.281 11.582 24.727 8.909 29.719 13.374 29.719 6.4" transform="translate(-7.2 -6)"/></svg>