<svg xmlns="http://www.w3.org/2000/svg" width="39" height="46" viewBox="0 0 39 46"><g fill="none" fill-rule="evenodd" transform="translate(-12.8 -9)"><rect width="64" height="64"/><path fill="#000" fill-rule="nonzero" d="M35.2,38.4 L35.2,51.2 C35.2,52.9673112 33.7673112,54.4 32,54.4 C30.2326888,54.4 28.8,52.9673112 28.8,51.2 L28.8,38.4 L35.2,38.4 Z M44.8,48 C46.5673112,48 48,49.4326888 48,51.2 C48,52.9673112 46.5673112,54.4 44.8,54.4 C43.0326888,54.4 41.6,52.9673112 41.6,51.2 C41.6,49.4326888 43.0326888,48 44.8,48 Z M44.8,38.4 C46.5673112,38.4 48,39.8326888 48,41.6 C48,43.3673112 46.5673112,44.8 44.8,44.8 C43.0326888,44.8 41.6,43.3673112 41.6,41.6 C41.6,39.8326888 43.0326888,38.4 44.8,38.4 Z M32,9.6 C33.7673112,9.6 35.2,11.0326888 35.2,12.8 L35.2,22.4 L44.8,22.4 C48.3346224,22.4 51.2,25.2653776 51.2,28.8 C51.2,32.3346224 48.3346224,35.2 44.8,35.2 L19.2,35.2 C15.6653776,35.2 12.8,32.3346224 12.8,28.8 C12.8,25.2653776 15.6653776,22.4 19.2,22.4 L28.8,22.4 L28.8,12.8 C28.8,11.0326888 30.2326888,9.6 32,9.6 Z M44.8,12.8 C46.5673112,12.8 48,14.2326888 48,16 C48,17.7673112 46.5673112,19.2 44.8,19.2 C43.0326888,19.2 41.6,17.7673112 41.6,16 C41.6,14.2326888 43.0326888,12.8 44.8,12.8 Z"/></g></svg>