<svg xmlns="http://www.w3.org/2000/svg" width="147" height="49" viewBox="0 0 147 49"><g fill="none" fill-rule="evenodd"><rect width="146" height="48" x=".5" y=".5" fill="#FFF" stroke="#D6DCE1" opacity="0"/><path fill="#92A4FC" d="M113.257428,45.2882615 C114.198803,45.307809 114.945087,46.0854587 114.92587,47.0237377 C114.905899,47.9628666 114.126389,48.7073706 113.185867,48.6878231 L113.185867,48.6878231 L32.2336233,46.9880423 L113.185867,45.2882615 Z M128.258167,39.5643348 C129.199541,39.5787829 129.950085,40.3513333 129.935809,41.2904622 C129.92112,42.2287411 129.146722,42.9783445 128.2062,42.9638963 L128.2062,42.9638963 L17.2134607,41.2641156 L128.2062,39.5643348 Z M18.9432701,6.34820558 L129.936009,8.04798636 L18.9432701,9.74776713 L18.8913028,9.74776713 C17.9499283,9.73331899 17.1993845,8.96076863 17.2136611,8.02163975 C17.2283499,7.08336077 18.0027475,6.33375745 18.9432701,6.34820558 L18.9432701,6.34820558 Z M33.9636031,0.624278821 L114.915846,2.32405959 L33.9636031,4.02384037 L33.8920416,4.02384037 C32.9506671,4.00429289 32.2043829,3.22664318 32.2235999,2.2883642 C32.2435713,1.34923532 33.0230805,0.604731342 33.9636031,0.624278821 L33.9636031,0.624278821 Z"/><path fill="#394063" fill-rule="nonzero" d="M5.42099811,35.5079236 L6.53926917,29.8712961 L11.1300662,29.8712961 C13.1704204,29.8712961 14.9410162,29.5305673 16.4418537,28.8491097 C17.9426912,28.1676521 19.1001998,27.1892738 19.9143796,25.9139746 C20.7285594,24.6386755 21.1356493,23.1443364 21.1356493,21.4309574 C21.1356493,19.4255251 20.4342776,17.8630403 19.031534,16.7435028 C17.6287905,15.6239654 15.642388,15.0641967 13.0723264,15.0641967 L13.0723264,15.0641967 L4.74414983,15.0641967 L0.624203822,35.5079236 L5.42099811,35.5079236 Z M11.3360635,26.0161933 L7.304402,26.0161933 L8.7463831,18.9192995 L12.4837627,18.9192995 C13.7197465,18.9192995 14.6663531,19.1626772 15.3235826,19.6494326 C15.9808121,20.136188 16.3094269,20.8663211 16.3094269,21.8398319 C16.3094269,23.1832768 15.8778135,24.2151983 15.0145867,24.9355963 C14.1513599,25.6559943 12.9251855,26.0161933 11.3360635,26.0161933 L11.3360635,26.0161933 Z M23.2250505,35.5079236 L25.9030154,31.127125 L35.496604,31.127125 L36.4677341,35.5079236 L41.2351002,35.5079236 L36.1734523,15.0641967 L31.4649425,15.0641967 L18.1339744,35.5079236 L23.2250505,35.5079236 Z M34.702043,27.5348701 L28.1101294,27.5348701 L32.96578,19.6494326 L34.702043,27.5348701 Z M48.1801521,35.5079236 L49.3278513,29.7836801 L53.388941,29.7836801 L56.6260414,35.5079236 L61.6582612,35.5079236 L58.0680225,29.1995736 C59.9121888,28.6349373 61.3541699,27.6711616 62.3939658,26.3082465 C63.4337617,24.9453314 63.9536597,23.3098332 63.9536597,21.401752 C63.9536597,19.3963198 63.2473832,17.8387025 61.8348303,16.7289002 C60.4222774,15.6190979 58.4407795,15.0641967 55.8903368,15.0641967 L55.8903368,15.0641967 L47.5033038,15.0641967 L43.3833578,35.5079236 L48.1801521,35.5079236 Z M54.1246456,26.0161933 L50.063556,26.0161933 L51.5055371,18.9192995 L55.2723449,18.9192995 C56.5083287,18.9192995 57.45984,19.1626772 58.1268789,19.6494326 C58.7939178,20.136188 59.1274372,20.8663211 59.1274372,21.8398319 C59.1274372,23.1832768 58.6909191,24.2151983 57.8178829,24.9355963 C56.9448467,25.6559943 55.7137676,26.0161933 54.1246456,26.0161933 L54.1246456,26.0161933 Z M73.7532455,35.5079236 L77.1080587,18.9192995 L83.6705442,18.9192995 L84.4651052,15.0641967 L66.5139118,15.0641967 L65.7193508,18.9192995 L72.3112644,18.9192995 L68.9858794,35.5079236 L73.7532455,35.5079236 Z M87.6139211,35.5079236 L90.2036014,22.7159916 L97.8843579,35.5079236 L101.798307,35.5079236 L105.918253,15.0641967 L101.209743,15.0641967 L98.6494907,27.885334 L90.9687342,15.0641967 L87.0253573,15.0641967 L82.9054113,35.5079236 L87.6139211,35.5079236 Z M122.633462,35.5079236 L123.428023,31.7112315 L112.186456,31.7112315 L113.128158,26.979969 L122.721747,26.979969 L123.457451,23.3000981 L113.893291,23.3000981 L114.776137,18.8608888 L125.576281,18.8608888 L126.370842,15.0641967 L110.803331,15.0641967 L106.683385,35.5079236 L122.633462,35.5079236 Z M131.226492,35.5079236 L132.374192,29.7836801 L136.435281,29.7836801 L139.672382,35.5079236 L144.704602,35.5079236 L141.114363,29.1995736 C142.958529,28.6349373 144.40051,27.6711616 145.440306,26.3082465 C146.480102,24.9453314 147,23.3098332 147,21.401752 C147,19.3963198 146.293724,17.8387025 144.881171,16.7289002 C143.468618,15.6190979 141.48712,15.0641967 138.936677,15.0641967 L138.936677,15.0641967 L130.549644,15.0641967 L126.429698,35.5079236 L131.226492,35.5079236 Z M137.170986,26.0161933 L133.109896,26.0161933 L134.551877,18.9192995 L138.318685,18.9192995 C139.554669,18.9192995 140.50618,19.1626772 141.173219,19.6494326 C141.840258,20.136188 142.173778,20.8663211 142.173778,21.8398319 C142.173778,23.1832768 141.737259,24.2151983 140.864223,24.9355963 C139.991187,25.6559943 138.760108,26.0161933 137.170986,26.0161933 L137.170986,26.0161933 Z"/></g></svg>